<?xml version="1.0" encoding="UTF-8" standalone="no"?>
<!DOCTYPE svg PUBLIC "-//W3C//DTD SVG 1.1//EN"
 "http://www.w3.org/Graphics/SVG/1.1/DTD/svg11.dtd">
<!-- Generated by graphviz version 12.1.1 (20240910.0053)
 -->
<!-- Title: INFRA Pages: 1 -->
<svg width="461pt" height="296pt"
 viewBox="0.00 0.00 461.49 296.00" xmlns="http://www.w3.org/2000/svg" xmlns:xlink="http://www.w3.org/1999/xlink">
<g id="graph0" class="graph" transform="scale(1 1) rotate(0) translate(4 292)">
<title>INFRA</title>
<polygon fill="white" stroke="none" points="-4,4 -4,-292 457.49,-292 457.49,4 -4,4"/>
<!-- ProdTenantGenerator -->
<g id="node1" class="node">
<title>ProdTenantGenerator</title>
<path fill="#e6e6e6" stroke="black" stroke-width="2" d="M223,-72C223,-72 94.81,-72 94.81,-72 88.81,-72 82.81,-66 82.81,-60 82.81,-60 82.81,-12 82.81,-12 82.81,-6 88.81,0 94.81,0 94.81,0 223,0 223,0 229,0 235,-6 235,-12 235,-12 235,-60 235,-60 235,-66 229,-72 223,-72"/>
<text text-anchor="middle" x="158.91" y="-40.2" font-family="Arial" font-size="14.00">ProdTenantGenerator</text>
<text text-anchor="middle" x="158.91" y="-23.4" font-family="Arial" font-size="14.00">(ApplicationSet)</text>
</g>
<!-- tenants&#45;prod -->
<g id="node2" class="node">
<title>tenants&#45;prod</title>
<path fill="#e6e6e6" stroke="black" stroke-width="2" d="M306.21,-288C306.21,-288 235.6,-288 235.6,-288 229.6,-288 223.6,-282 223.6,-276 223.6,-276 223.6,-228 223.6,-228 223.6,-222 229.6,-216 235.6,-216 235.6,-216 306.21,-216 306.21,-216 312.21,-216 318.21,-222 318.21,-228 318.21,-228 318.21,-276 318.21,-276 318.21,-282 312.21,-288 306.21,-288"/>
<text text-anchor="middle" x="270.91" y="-256.2" font-family="Arial" font-size="14.00">tenants&#45;prod</text>
<text text-anchor="middle" x="270.91" y="-239.4" font-family="Arial" font-size="14.00">(AppProject)</text>
</g>
<!-- kcl&#45;plugin&#45;config -->
<g id="node3" class="node">
<title>kcl&#45;plugin&#45;config</title>
<path fill="#e6e6e6" stroke="black" stroke-width="2" d="M441.49,-288C441.49,-288 348.33,-288 348.33,-288 342.33,-288 336.33,-282 336.33,-276 336.33,-276 336.33,-228 336.33,-228 336.33,-222 342.33,-216 348.33,-216 348.33,-216 441.49,-216 441.49,-216 447.49,-216 453.49,-222 453.49,-228 453.49,-228 453.49,-276 453.49,-276 453.49,-282 447.49,-288 441.49,-288"/>
<text text-anchor="middle" x="394.91" y="-256.2" font-family="Arial" font-size="14.00">kcl&#45;plugin&#45;config</text>
<text text-anchor="middle" x="394.91" y="-239.4" font-family="Arial" font-size="14.00">(ConfigMap)</text>
</g>
<!-- team&#45;a&#45;prod -->
<g id="node4" class="node">
<title>team&#45;a&#45;prod</title>
<path fill="#e6e6e6" stroke="black" stroke-width="2" d="M137.81,-180C137.81,-180 68,-180 68,-180 62,-180 56,-174 56,-168 56,-168 56,-120 56,-120 56,-114 62,-108 68,-108 68,-108 137.81,-108 137.81,-108 143.81,-108 149.81,-114 149.81,-120 149.81,-120 149.81,-168 149.81,-168 149.81,-174 143.81,-180 137.81,-180"/>
<text text-anchor="middle" x="102.91" y="-148.2" font-family="Arial" font-size="14.00">team&#45;a&#45;prod</text>
<text text-anchor="middle" x="102.91" y="-131.4" font-family="Arial" font-size="14.00">(Application)</text>
</g>
<!-- team&#45;a&#45;prod&#45;&gt;ProdTenantGenerator -->
<g id="edge1" class="edge">
<title>team&#45;a&#45;prod&#45;&gt;ProdTenantGenerator</title>
<path fill="none" stroke="black" d="M121.55,-107.7C125.85,-99.57 130.48,-90.8 134.97,-82.31"/>
<polygon fill="black" stroke="black" points="138.06,-83.96 139.63,-73.48 131.87,-80.69 138.06,-83.96"/>
</g>
<!-- team&#45;b&#45;prod -->
<g id="node5" class="node">
<title>team&#45;b&#45;prod</title>
<path fill="#e6e6e6" stroke="black" stroke-width="2" d="M249.81,-180C249.81,-180 180,-180 180,-180 174,-180 168,-174 168,-168 168,-168 168,-120 168,-120 168,-114 174,-108 180,-108 180,-108 249.81,-108 249.81,-108 255.81,-108 261.81,-114 261.81,-120 261.81,-120 261.81,-168 261.81,-168 261.81,-174 255.81,-180 249.81,-180"/>
<text text-anchor="middle" x="214.91" y="-148.2" font-family="Arial" font-size="14.00">team&#45;b&#45;prod</text>
<text text-anchor="middle" x="214.91" y="-131.4" font-family="Arial" font-size="14.00">(Application)</text>
</g>
<!-- team&#45;b&#45;prod&#45;&gt;ProdTenantGenerator -->
<g id="edge2" class="edge">
<title>team&#45;b&#45;prod&#45;&gt;ProdTenantGenerator</title>
<path fill="none" stroke="black" d="M196.26,-107.7C191.96,-99.57 187.33,-90.8 182.84,-82.31"/>
<polygon fill="black" stroke="black" points="185.95,-80.69 178.18,-73.48 179.76,-83.96 185.95,-80.69"/>
</g>
<!-- guestbook -->
<g id="node6" class="node">
<title>guestbook</title>
<path fill="#b7e0ff" stroke="black" stroke-width="2" d="M81.81,-288C81.81,-288 12,-288 12,-288 6,-288 0,-282 0,-276 0,-276 0,-228 0,-228 0,-222 6,-216 12,-216 12,-216 81.81,-216 81.81,-216 87.81,-216 93.81,-222 93.81,-228 93.81,-228 93.81,-276 93.81,-276 93.81,-282 87.81,-288 81.81,-288"/>
<text text-anchor="middle" x="46.91" y="-256.2" font-family="Arial" font-size="14.00">guestbook</text>
<text text-anchor="middle" x="46.91" y="-239.4" font-family="Arial" font-size="14.00">(Application)</text>
</g>
<!-- guestbook&#45;&gt;team&#45;a&#45;prod -->
<g id="edge3" class="edge">
<title>guestbook&#45;&gt;team&#45;a&#45;prod</title>
<path fill="none" stroke="black" d="M65.55,-215.7C69.85,-207.57 74.48,-198.8 78.97,-190.31"/>
<polygon fill="black" stroke="black" points="82.06,-191.96 83.63,-181.48 75.87,-188.69 82.06,-191.96"/>
</g>
<!-- backend -->
<g id="node7" class="node">
<title>backend</title>
<path fill="#b7e0ff" stroke="black" stroke-width="2" d="M193.81,-288C193.81,-288 124,-288 124,-288 118,-288 112,-282 112,-276 112,-276 112,-228 112,-228 112,-222 118,-216 124,-216 124,-216 193.81,-216 193.81,-216 199.81,-216 205.81,-222 205.81,-228 205.81,-228 205.81,-276 205.81,-276 205.81,-282 199.81,-288 193.81,-288"/>
<text text-anchor="middle" x="158.91" y="-256.2" font-family="Arial" font-size="14.00">backend</text>
<text text-anchor="middle" x="158.91" y="-239.4" font-family="Arial" font-size="14.00">(Application)</text>
</g>
<!-- backend&#45;&gt;team&#45;a&#45;prod -->
<g id="edge4" class="edge">
<title>backend&#45;&gt;team&#45;a&#45;prod</title>
<path fill="none" stroke="black" d="M140.26,-215.7C135.96,-207.57 131.33,-198.8 126.84,-190.31"/>
<polygon fill="black" stroke="black" points="129.95,-188.69 122.18,-181.48 123.76,-191.96 129.95,-188.69"/>
</g>
</g>
</svg>
