<?xml version="1.0" encoding="UTF-8" standalone="no"?>
<!DOCTYPE svg PUBLIC "-//W3C//DTD SVG 1.1//EN"
 "http://www.w3.org/Graphics/SVG/1.1/DTD/svg11.dtd">
<!-- Generated by graphviz version 12.1.1 (20240910.0053)
 -->
<!-- Title: INFRA Pages: 1 -->
<svg width="974pt" height="188pt"
 viewBox="0.00 0.00 974.23 188.00" xmlns="http://www.w3.org/2000/svg" xmlns:xlink="http://www.w3.org/1999/xlink">
<g id="graph0" class="graph" transform="scale(1 1) rotate(0) translate(4 184)">
<title>INFRA</title>
<polygon fill="white" stroke="none" points="-4,4 -4,-184 970.23,-184 970.23,4 -4,4"/>
<!-- team&#45;a&#45;namespace&#45;apps -->
<g id="node1" class="node">
<title>team&#45;a&#45;namespace&#45;apps</title>
<path fill="#e6e6e6" stroke="black" stroke-width="2" d="M301.62,-72C301.62,-72 153.99,-72 153.99,-72 147.99,-72 141.99,-66 141.99,-60 141.99,-60 141.99,-12 141.99,-12 141.99,-6 147.99,0 153.99,0 153.99,0 301.62,0 301.62,0 307.62,0 313.62,-6 313.62,-12 313.62,-12 313.62,-60 313.62,-60 313.62,-66 307.62,-72 301.62,-72"/>
<text text-anchor="middle" x="227.8" y="-40.2" font-family="Arial" font-size="14.00">team&#45;a&#45;namespace&#45;apps</text>
<text text-anchor="middle" x="227.8" y="-23.4" font-family="Arial" font-size="14.00">(Namespace)</text>
</g>
<!-- team&#45;a&#45;namespace&#45;tools -->
<g id="node2" class="node">
<title>team&#45;a&#45;namespace&#45;tools</title>
<path fill="#e6e6e6" stroke="black" stroke-width="2" d="M547.23,-72C547.23,-72 400.38,-72 400.38,-72 394.38,-72 388.38,-66 388.38,-60 388.38,-60 388.38,-12 388.38,-12 388.38,-6 394.38,0 400.38,0 400.38,0 547.23,0 547.23,0 553.23,0 559.23,-6 559.23,-12 559.23,-12 559.23,-60 559.23,-60 559.23,-66 553.23,-72 547.23,-72"/>
<text text-anchor="middle" x="473.8" y="-40.2" font-family="Arial" font-size="14.00">team&#45;a&#45;namespace&#45;tools</text>
<text text-anchor="middle" x="473.8" y="-23.4" font-family="Arial" font-size="14.00">(Namespace)</text>
</g>
<!-- team&#45;a&#45;frontend -->
<g id="node3" class="node">
<title>team&#45;a&#45;frontend</title>
<path fill="#b7e0ff" stroke="black" stroke-width="2" d="M103.61,-180C103.61,-180 12,-180 12,-180 6,-180 0,-174 0,-168 0,-168 0,-120 0,-120 0,-114 6,-108 12,-108 12,-108 103.61,-108 103.61,-108 109.61,-108 115.61,-114 115.61,-120 115.61,-120 115.61,-168 115.61,-168 115.61,-174 109.61,-180 103.61,-180"/>
<text text-anchor="middle" x="57.8" y="-148.2" font-family="Arial" font-size="14.00">team&#45;a&#45;frontend</text>
<text text-anchor="middle" x="57.8" y="-131.4" font-family="Arial" font-size="14.00">(Application)</text>
</g>
<!-- team&#45;a&#45;frontend&#45;&gt;team&#45;a&#45;namespace&#45;apps -->
<g id="edge1" class="edge">
<title>team&#45;a&#45;frontend&#45;&gt;team&#45;a&#45;namespace&#45;apps</title>
<path fill="none" stroke="black" d="M114.41,-107.7C129.53,-98.28 146,-88.01 161.58,-78.29"/>
<polygon fill="black" stroke="black" points="163.24,-81.38 169.87,-73.12 159.53,-75.44 163.24,-81.38"/>
</g>
<!-- team&#45;a&#45;backend -->
<g id="node4" class="node">
<title>team&#45;a&#45;backend</title>
<path fill="#b7e0ff" stroke="black" stroke-width="2" d="M238.39,-180C238.39,-180 145.22,-180 145.22,-180 139.22,-180 133.22,-174 133.22,-168 133.22,-168 133.22,-120 133.22,-120 133.22,-114 139.22,-108 145.22,-108 145.22,-108 238.39,-108 238.39,-108 244.39,-108 250.39,-114 250.39,-120 250.39,-120 250.39,-168 250.39,-168 250.39,-174 244.39,-180 238.39,-180"/>
<text text-anchor="middle" x="191.8" y="-148.2" font-family="Arial" font-size="14.00">team&#45;a&#45;backend</text>
<text text-anchor="middle" x="191.8" y="-131.4" font-family="Arial" font-size="14.00">(Application)</text>
</g>
<!-- team&#45;a&#45;backend&#45;&gt;team&#45;a&#45;namespace&#45;apps -->
<g id="edge2" class="edge">
<title>team&#45;a&#45;backend&#45;&gt;team&#45;a&#45;namespace&#45;apps</title>
<path fill="none" stroke="black" d="M203.79,-107.7C206.49,-99.75 209.4,-91.19 212.22,-82.87"/>
<polygon fill="black" stroke="black" points="215.48,-84.17 215.38,-73.58 208.85,-81.92 215.48,-84.17"/>
</g>
<!-- team&#45;a&#45;resource&#45;quota -->
<g id="node5" class="node">
<title>team&#45;a&#45;resource&#45;quota</title>
<path fill="#e6e6e6" stroke="black" stroke-width="2" d="M415,-180C415,-180 280.6,-180 280.6,-180 274.6,-180 268.6,-174 268.6,-168 268.6,-168 268.6,-120 268.6,-120 268.6,-114 274.6,-108 280.6,-108 280.6,-108 415,-108 415,-108 421,-108 427,-114 427,-120 427,-120 427,-168 427,-168 427,-174 421,-180 415,-180"/>
<text text-anchor="middle" x="347.8" y="-148.2" font-family="Arial" font-size="14.00">team&#45;a&#45;resource&#45;quota</text>
<text text-anchor="middle" x="347.8" y="-131.4" font-family="Arial" font-size="14.00">(ResourceQuota)</text>
</g>
<!-- team&#45;a&#45;resource&#45;quota&#45;&gt;team&#45;a&#45;namespace&#45;apps -->
<g id="edge3" class="edge">
<title>team&#45;a&#45;resource&#45;quota&#45;&gt;team&#45;a&#45;namespace&#45;apps</title>
<path fill="none" stroke="black" d="M307.84,-107.7C297.62,-98.67 286.52,-88.87 275.94,-79.52"/>
<polygon fill="black" stroke="black" points="278.53,-77.14 268.72,-73.14 273.9,-82.39 278.53,-77.14"/>
</g>
<!-- team&#45;a&#45;resource&#45;quota&#45;&gt;team&#45;a&#45;namespace&#45;tools -->
<g id="edge4" class="edge">
<title>team&#45;a&#45;resource&#45;quota&#45;&gt;team&#45;a&#45;namespace&#45;tools</title>
<path fill="none" stroke="black" d="M389.76,-107.7C400.49,-98.67 412.15,-88.87 423.26,-79.52"/>
<polygon fill="black" stroke="black" points="425.47,-82.23 430.87,-73.12 420.97,-76.88 425.47,-82.23"/>
</g>
<!-- team&#45;a&#45;limit&#45;range -->
<g id="node6" class="node">
<title>team&#45;a&#45;limit&#45;range</title>
<path fill="#e6e6e6" stroke="black" stroke-width="2" d="M562.6,-180C562.6,-180 457.01,-180 457.01,-180 451.01,-180 445.01,-174 445.01,-168 445.01,-168 445.01,-120 445.01,-120 445.01,-114 451.01,-108 457.01,-108 457.01,-108 562.6,-108 562.6,-108 568.6,-108 574.6,-114 574.6,-120 574.6,-120 574.6,-168 574.6,-168 574.6,-174 568.6,-180 562.6,-180"/>
<text text-anchor="middle" x="509.8" y="-148.2" font-family="Arial" font-size="14.00">team&#45;a&#45;limit&#45;range</text>
<text text-anchor="middle" x="509.8" y="-131.4" font-family="Arial" font-size="14.00">(LimitRange)</text>
</g>
<!-- team&#45;a&#45;limit&#45;range&#45;&gt;team&#45;a&#45;namespace&#45;apps -->
<g id="edge5" class="edge">
<title>team&#45;a&#45;limit&#45;range&#45;&gt;team&#45;a&#45;namespace&#45;apps</title>
<path fill="none" stroke="black" d="M444.61,-111.68C441.65,-110.41 438.7,-109.18 435.8,-108 400.07,-93.51 360.14,-79.39 324.9,-67.62"/>
<polygon fill="black" stroke="black" points="326.15,-64.34 315.55,-64.52 323.94,-70.99 326.15,-64.34"/>
</g>
<!-- team&#45;a&#45;limit&#45;range&#45;&gt;team&#45;a&#45;namespace&#45;tools -->
<g id="edge6" class="edge">
<title>team&#45;a&#45;limit&#45;range&#45;&gt;team&#45;a&#45;namespace&#45;tools</title>
<path fill="none" stroke="black" d="M497.82,-107.7C495.11,-99.75 492.21,-91.19 489.38,-82.87"/>
<polygon fill="black" stroke="black" points="492.76,-81.92 486.23,-73.58 486.13,-84.17 492.76,-81.92"/>
</g>
<!-- team&#45;b&#45;namespace&#45;apps -->
<g id="node7" class="node">
<title>team&#45;b&#45;namespace&#45;apps</title>
<path fill="#e6e6e6" stroke="black" stroke-width="2" d="M765.62,-72C765.62,-72 617.99,-72 617.99,-72 611.99,-72 605.99,-66 605.99,-60 605.99,-60 605.99,-12 605.99,-12 605.99,-6 611.99,0 617.99,0 617.99,0 765.62,0 765.62,0 771.62,0 777.62,-6 777.62,-12 777.62,-12 777.62,-60 777.62,-60 777.62,-66 771.62,-72 765.62,-72"/>
<text text-anchor="middle" x="691.8" y="-40.2" font-family="Arial" font-size="14.00">team&#45;b&#45;namespace&#45;apps</text>
<text text-anchor="middle" x="691.8" y="-23.4" font-family="Arial" font-size="14.00">(Namespace)</text>
</g>
<!-- team&#45;b&#45;namespace&#45;tools -->
<g id="node8" class="node">
<title>team&#45;b&#45;namespace&#45;tools</title>
<path fill="#e6e6e6" stroke="black" stroke-width="2" d="M954.23,-72C954.23,-72 807.38,-72 807.38,-72 801.38,-72 795.38,-66 795.38,-60 795.38,-60 795.38,-12 795.38,-12 795.38,-6 801.38,0 807.38,0 807.38,0 954.23,0 954.23,0 960.23,0 966.23,-6 966.23,-12 966.23,-12 966.23,-60 966.23,-60 966.23,-66 960.23,-72 954.23,-72"/>
<text text-anchor="middle" x="880.8" y="-40.2" font-family="Arial" font-size="14.00">team&#45;b&#45;namespace&#45;tools</text>
<text text-anchor="middle" x="880.8" y="-23.4" font-family="Arial" font-size="14.00">(Namespace)</text>
</g>
<!-- team&#45;b&#45;resource&#45;quota -->
<g id="node9" class="node">
<title>team&#45;b&#45;resource&#45;quota</title>
<path fill="#e6e6e6" stroke="black" stroke-width="2" d="M766,-180C766,-180 631.6,-180 631.6,-180 625.6,-180 619.6,-174 619.6,-168 619.6,-168 619.6,-120 619.6,-120 619.6,-114 625.6,-108 631.6,-108 631.6,-108 766,-108 766,-108 772,-108 778,-114 778,-120 778,-120 778,-168 778,-168 778,-174 772,-180 766,-180"/>
<text text-anchor="middle" x="698.8" y="-148.2" font-family="Arial" font-size="14.00">team&#45;b&#45;resource&#45;quota</text>
<text text-anchor="middle" x="698.8" y="-131.4" font-family="Arial" font-size="14.00">(ResourceQuota)</text>
</g>
<!-- team&#45;b&#45;resource&#45;quota&#45;&gt;team&#45;b&#45;namespace&#45;apps -->
<g id="edge7" class="edge">
<title>team&#45;b&#45;resource&#45;quota&#45;&gt;team&#45;b&#45;namespace&#45;apps</title>
<path fill="none" stroke="black" d="M696.47,-107.7C695.96,-99.93 695.41,-91.57 694.87,-83.43"/>
<polygon fill="black" stroke="black" points="698.38,-83.4 694.22,-73.65 691.39,-83.86 698.38,-83.4"/>
</g>
<!-- team&#45;b&#45;resource&#45;quota&#45;&gt;team&#45;b&#45;namespace&#45;tools -->
<g id="edge8" class="edge">
<title>team&#45;b&#45;resource&#45;quota&#45;&gt;team&#45;b&#45;namespace&#45;tools</title>
<path fill="none" stroke="black" d="M759.66,-107.56C775.9,-98.1 793.58,-87.8 810.3,-78.07"/>
<polygon fill="black" stroke="black" points="811.82,-81.23 818.7,-73.17 808.29,-75.18 811.82,-81.23"/>
</g>
<!-- team&#45;b&#45;limit&#45;range -->
<g id="node10" class="node">
<title>team&#45;b&#45;limit&#45;range</title>
<path fill="#e6e6e6" stroke="black" stroke-width="2" d="M926.6,-180C926.6,-180 821.01,-180 821.01,-180 815.01,-180 809.01,-174 809.01,-168 809.01,-168 809.01,-120 809.01,-120 809.01,-114 815.01,-108 821.01,-108 821.01,-108 926.6,-108 926.6,-108 932.6,-108 938.6,-114 938.6,-120 938.6,-120 938.6,-168 938.6,-168 938.6,-174 932.6,-180 926.6,-180"/>
<text text-anchor="middle" x="873.8" y="-148.2" font-family="Arial" font-size="14.00">team&#45;b&#45;limit&#45;range</text>
<text text-anchor="middle" x="873.8" y="-131.4" font-family="Arial" font-size="14.00">(LimitRange)</text>
</g>
<!-- team&#45;b&#45;limit&#45;range&#45;&gt;team&#45;b&#45;namespace&#45;apps -->
<g id="edge9" class="edge">
<title>team&#45;b&#45;limit&#45;range&#45;&gt;team&#45;b&#45;namespace&#45;apps</title>
<path fill="none" stroke="black" d="M812.95,-107.56C796.71,-98.1 779.02,-87.8 762.31,-78.07"/>
<polygon fill="black" stroke="black" points="764.31,-75.18 753.91,-73.17 760.79,-81.23 764.31,-75.18"/>
</g>
<!-- team&#45;b&#45;limit&#45;range&#45;&gt;team&#45;b&#45;namespace&#45;tools -->
<g id="edge10" class="edge">
<title>team&#45;b&#45;limit&#45;range&#45;&gt;team&#45;b&#45;namespace&#45;tools</title>
<path fill="none" stroke="black" d="M876.13,-107.7C876.65,-99.93 877.2,-91.57 877.74,-83.43"/>
<polygon fill="black" stroke="black" points="881.22,-83.86 878.38,-73.65 874.23,-83.4 881.22,-83.86"/>
</g>
</g>
</svg>
