<?xml version="1.0" encoding="UTF-8" standalone="no"?>
<!DOCTYPE svg PUBLIC "-//W3C//DTD SVG 1.1//EN"
 "http://www.w3.org/Graphics/SVG/1.1/DTD/svg11.dtd">
<!-- Generated by graphviz version 12.1.1 (20240910.0053)
 -->
<!-- Title: INFRA Pages: 1 -->
<svg width="282pt" height="80pt"
 viewBox="0.00 0.00 282.04 80.00" xmlns="http://www.w3.org/2000/svg" xmlns:xlink="http://www.w3.org/1999/xlink">
<g id="graph0" class="graph" transform="scale(1 1) rotate(0) translate(4 76)">
<title>INFRA</title>
<polygon fill="white" stroke="none" points="-4,4 -4,-76 278.04,-76 278.04,4 -4,4"/>
<!-- EKS&#45;Tenant1 -->
<g id="node1" class="node">
<title>EKS&#45;Tenant1</title>
<path fill="#e6e6e6" stroke="black" stroke-width="2" d="M116.04,-72C116.04,-72 12,-72 12,-72 6,-72 0,-66 0,-60 0,-60 0,-12 0,-12 0,-6 6,0 12,0 12,0 116.04,0 116.04,0 122.04,0 128.04,-6 128.04,-12 128.04,-12 128.04,-60 128.04,-60 128.04,-66 122.04,-72 116.04,-72"/>
<text text-anchor="middle" x="64.02" y="-40.2" font-family="Arial" font-size="14.00">EKS&#45;Tenant1</text>
<text text-anchor="middle" x="64.02" y="-23.4" font-family="Arial" font-size="14.00">(EKSNamespace)</text>
</g>
<!-- EKS&#45;Tenant2 -->
<g id="node2" class="node">
<title>EKS&#45;Tenant2</title>
<path fill="#e6e6e6" stroke="black" stroke-width="2" d="M262.04,-72C262.04,-72 158,-72 158,-72 152,-72 146,-66 146,-60 146,-60 146,-12 146,-12 146,-6 152,0 158,0 158,0 262.04,0 262.04,0 268.04,0 274.04,-6 274.04,-12 274.04,-12 274.04,-60 274.04,-60 274.04,-66 268.04,-72 262.04,-72"/>
<text text-anchor="middle" x="210.02" y="-40.2" font-family="Arial" font-size="14.00">EKS&#45;Tenant2</text>
<text text-anchor="middle" x="210.02" y="-23.4" font-family="Arial" font-size="14.00">(EKSNamespace)</text>
</g>
</g>
</svg>
