<?xml version="1.0" encoding="UTF-8" standalone="no"?>
<!DOCTYPE svg PUBLIC "-//W3C//DTD SVG 1.1//EN"
 "http://www.w3.org/Graphics/SVG/1.1/DTD/svg11.dtd">
<!-- Generated by graphviz version 12.1.1 (20240910.0053)
 -->
<!-- Title: INFRA Pages: 1 -->
<svg width="993pt" height="512pt"
 viewBox="0.00 0.00 992.70 512.00" xmlns="http://www.w3.org/2000/svg" xmlns:xlink="http://www.w3.org/1999/xlink">
<g id="graph0" class="graph" transform="scale(1 1) rotate(0) translate(4 508)">
<title>INFRA</title>
<polygon fill="white" stroke="none" points="-4,4 -4,-508 988.7,-508 988.7,4 -4,4"/>
<!-- ProdTenantGenerator -->
<g id="node1" class="node">
<title>ProdTenantGenerator</title>
<path fill="#e6e6e6" stroke="black" stroke-width="2" d="M525,-72C525,-72 396.81,-72 396.81,-72 390.81,-72 384.81,-66 384.81,-60 384.81,-60 384.81,-12 384.81,-12 384.81,-6 390.81,0 396.81,0 396.81,0 525,0 525,0 531,0 537,-6 537,-12 537,-12 537,-60 537,-60 537,-66 531,-72 525,-72"/>
<text text-anchor="middle" x="460.91" y="-40.2" font-family="Arial" font-size="14.00">ProdTenantGenerator</text>
<text text-anchor="middle" x="460.91" y="-23.4" font-family="Arial" font-size="14.00">(ApplicationSet)</text>
</g>
<!-- kcl&#45;plugin&#45;config -->
<g id="node2" class="node">
<title>kcl&#45;plugin&#45;config</title>
<path fill="#e6e6e6" stroke="black" stroke-width="2" d="M538.49,-504C538.49,-504 445.33,-504 445.33,-504 439.33,-504 433.33,-498 433.33,-492 433.33,-492 433.33,-444 433.33,-444 433.33,-438 439.33,-432 445.33,-432 445.33,-432 538.49,-432 538.49,-432 544.49,-432 550.49,-438 550.49,-444 550.49,-444 550.49,-492 550.49,-492 550.49,-498 544.49,-504 538.49,-504"/>
<text text-anchor="middle" x="491.91" y="-472.2" font-family="Arial" font-size="14.00">kcl&#45;plugin&#45;config</text>
<text text-anchor="middle" x="491.91" y="-455.4" font-family="Arial" font-size="14.00">(ConfigMap)</text>
</g>
<!-- tenants&#45;prod -->
<g id="node3" class="node">
<title>tenants&#45;prod</title>
<path fill="#e6e6e6" stroke="black" stroke-width="2" d="M651.21,-504C651.21,-504 580.6,-504 580.6,-504 574.6,-504 568.6,-498 568.6,-492 568.6,-492 568.6,-444 568.6,-444 568.6,-438 574.6,-432 580.6,-432 580.6,-432 651.21,-432 651.21,-432 657.21,-432 663.21,-438 663.21,-444 663.21,-444 663.21,-492 663.21,-492 663.21,-498 657.21,-504 651.21,-504"/>
<text text-anchor="middle" x="615.91" y="-472.2" font-family="Arial" font-size="14.00">tenants&#45;prod</text>
<text text-anchor="middle" x="615.91" y="-455.4" font-family="Arial" font-size="14.00">(AppProject)</text>
</g>
<!-- team&#45;a&#45;prod -->
<g id="node4" class="node">
<title>team&#45;a&#45;prod</title>
<path fill="#e6e6e6" stroke="black" stroke-width="2" d="M439.81,-180C439.81,-180 370,-180 370,-180 364,-180 358,-174 358,-168 358,-168 358,-120 358,-120 358,-114 364,-108 370,-108 370,-108 439.81,-108 439.81,-108 445.81,-108 451.81,-114 451.81,-120 451.81,-120 451.81,-168 451.81,-168 451.81,-174 445.81,-180 439.81,-180"/>
<text text-anchor="middle" x="404.91" y="-148.2" font-family="Arial" font-size="14.00">team&#45;a&#45;prod</text>
<text text-anchor="middle" x="404.91" y="-131.4" font-family="Arial" font-size="14.00">(Application)</text>
</g>
<!-- team&#45;a&#45;prod&#45;&gt;ProdTenantGenerator -->
<g id="edge1" class="edge">
<title>team&#45;a&#45;prod&#45;&gt;ProdTenantGenerator</title>
<path fill="none" stroke="black" d="M423.55,-107.7C427.85,-99.57 432.48,-90.8 436.97,-82.31"/>
<polygon fill="black" stroke="black" points="440.06,-83.96 441.63,-73.48 433.87,-80.69 440.06,-83.96"/>
</g>
<!-- team&#45;b&#45;prod -->
<g id="node5" class="node">
<title>team&#45;b&#45;prod</title>
<path fill="#e6e6e6" stroke="black" stroke-width="2" d="M551.81,-180C551.81,-180 482,-180 482,-180 476,-180 470,-174 470,-168 470,-168 470,-120 470,-120 470,-114 476,-108 482,-108 482,-108 551.81,-108 551.81,-108 557.81,-108 563.81,-114 563.81,-120 563.81,-120 563.81,-168 563.81,-168 563.81,-174 557.81,-180 551.81,-180"/>
<text text-anchor="middle" x="516.91" y="-148.2" font-family="Arial" font-size="14.00">team&#45;b&#45;prod</text>
<text text-anchor="middle" x="516.91" y="-131.4" font-family="Arial" font-size="14.00">(Application)</text>
</g>
<!-- team&#45;b&#45;prod&#45;&gt;ProdTenantGenerator -->
<g id="edge2" class="edge">
<title>team&#45;b&#45;prod&#45;&gt;ProdTenantGenerator</title>
<path fill="none" stroke="black" d="M498.26,-107.7C493.96,-99.57 489.33,-90.8 484.84,-82.31"/>
<polygon fill="black" stroke="black" points="487.95,-80.69 480.18,-73.48 481.76,-83.96 487.95,-80.69"/>
</g>
<!-- guestbook -->
<g id="node6" class="node">
<title>guestbook</title>
<path fill="#b7e0ff" stroke="black" stroke-width="2" d="M81.81,-288C81.81,-288 12,-288 12,-288 6,-288 0,-282 0,-276 0,-276 0,-228 0,-228 0,-222 6,-216 12,-216 12,-216 81.81,-216 81.81,-216 87.81,-216 93.81,-222 93.81,-228 93.81,-228 93.81,-276 93.81,-276 93.81,-282 87.81,-288 81.81,-288"/>
<text text-anchor="middle" x="46.91" y="-256.2" font-family="Arial" font-size="14.00">guestbook</text>
<text text-anchor="middle" x="46.91" y="-239.4" font-family="Arial" font-size="14.00">(Application)</text>
</g>
<!-- guestbook&#45;&gt;team&#45;a&#45;prod -->
<g id="edge3" class="edge">
<title>guestbook&#45;&gt;team&#45;a&#45;prod</title>
<path fill="none" stroke="black" d="M94.31,-219.94C97.17,-218.52 100.05,-217.19 102.91,-216 184,-182.22 284.34,-162.66 346.49,-152.92"/>
<polygon fill="black" stroke="black" points="346.79,-156.41 356.15,-151.44 345.73,-149.49 346.79,-156.41"/>
</g>
<!-- backend -->
<g id="node7" class="node">
<title>backend</title>
<path fill="#b7e0ff" stroke="black" stroke-width="2" d="M193.81,-288C193.81,-288 124,-288 124,-288 118,-288 112,-282 112,-276 112,-276 112,-228 112,-228 112,-222 118,-216 124,-216 124,-216 193.81,-216 193.81,-216 199.81,-216 205.81,-222 205.81,-228 205.81,-228 205.81,-276 205.81,-276 205.81,-282 199.81,-288 193.81,-288"/>
<text text-anchor="middle" x="158.91" y="-256.2" font-family="Arial" font-size="14.00">backend</text>
<text text-anchor="middle" x="158.91" y="-239.4" font-family="Arial" font-size="14.00">(Application)</text>
</g>
<!-- backend&#45;&gt;team&#45;a&#45;prod -->
<g id="edge4" class="edge">
<title>backend&#45;&gt;team&#45;a&#45;prod</title>
<path fill="none" stroke="black" d="M206.15,-222.95C210.75,-220.51 215.39,-218.15 219.91,-216 261.48,-196.24 310.13,-177.74 347.1,-164.58"/>
<polygon fill="black" stroke="black" points="348,-167.98 356.26,-161.35 345.67,-161.38 348,-167.98"/>
</g>
<!-- team&#45;a&#45;apps&#45;namespace -->
<g id="node8" class="node">
<title>team&#45;a&#45;apps&#45;namespace</title>
<path fill="#e6e6e6" stroke="black" stroke-width="2" d="M421.72,-288C421.72,-288 274.09,-288 274.09,-288 268.09,-288 262.09,-282 262.09,-276 262.09,-276 262.09,-228 262.09,-228 262.09,-222 268.09,-216 274.09,-216 274.09,-216 421.72,-216 421.72,-216 427.72,-216 433.72,-222 433.72,-228 433.72,-228 433.72,-276 433.72,-276 433.72,-282 427.72,-288 421.72,-288"/>
<text text-anchor="middle" x="347.91" y="-256.2" font-family="Arial" font-size="14.00">team&#45;a&#45;apps&#45;namespace</text>
<text text-anchor="middle" x="347.91" y="-239.4" font-family="Arial" font-size="14.00">(Namespace)</text>
</g>
<!-- team&#45;a&#45;apps&#45;namespace&#45;&gt;team&#45;a&#45;prod -->
<g id="edge5" class="edge">
<title>team&#45;a&#45;apps&#45;namespace&#45;&gt;team&#45;a&#45;prod</title>
<path fill="none" stroke="black" d="M366.89,-215.7C371.31,-207.48 376.08,-198.61 380.69,-190.03"/>
<polygon fill="black" stroke="black" points="383.64,-191.94 385.29,-181.48 377.47,-188.63 383.64,-191.94"/>
</g>
<!-- team&#45;a&#45;tools&#45;namespace -->
<g id="node9" class="node">
<title>team&#45;a&#45;tools&#45;namespace</title>
<path fill="#e6e6e6" stroke="black" stroke-width="2" d="M648.33,-288C648.33,-288 501.48,-288 501.48,-288 495.48,-288 489.48,-282 489.48,-276 489.48,-276 489.48,-228 489.48,-228 489.48,-222 495.48,-216 501.48,-216 501.48,-216 648.33,-216 648.33,-216 654.33,-216 660.33,-222 660.33,-228 660.33,-228 660.33,-276 660.33,-276 660.33,-282 654.33,-288 648.33,-288"/>
<text text-anchor="middle" x="574.91" y="-256.2" font-family="Arial" font-size="14.00">team&#45;a&#45;tools&#45;namespace</text>
<text text-anchor="middle" x="574.91" y="-239.4" font-family="Arial" font-size="14.00">(Namespace)</text>
</g>
<!-- team&#45;a&#45;tools&#45;namespace&#45;&gt;team&#45;a&#45;prod -->
<g id="edge6" class="edge">
<title>team&#45;a&#45;tools&#45;namespace&#45;&gt;team&#45;a&#45;prod</title>
<path fill="none" stroke="black" d="M518.07,-215.63C502.02,-205.63 484.39,-194.65 461.86,-180.59"/>
<polygon fill="black" stroke="black" points="463.88,-177.73 453.54,-175.4 460.18,-183.67 463.88,-177.73"/>
</g>
<!-- team&#45;a&#45;resource&#45;quota -->
<g id="node10" class="node">
<title>team&#45;a&#45;resource&#45;quota</title>
<path fill="#e6e6e6" stroke="black" stroke-width="2" d="M825.11,-288C825.11,-288 690.71,-288 690.71,-288 684.71,-288 678.71,-282 678.71,-276 678.71,-276 678.71,-228 678.71,-228 678.71,-222 684.71,-216 690.71,-216 690.71,-216 825.11,-216 825.11,-216 831.11,-216 837.11,-222 837.11,-228 837.11,-228 837.11,-276 837.11,-276 837.11,-282 831.11,-288 825.11,-288"/>
<text text-anchor="middle" x="757.91" y="-256.2" font-family="Arial" font-size="14.00">team&#45;a&#45;resource&#45;quota</text>
<text text-anchor="middle" x="757.91" y="-239.4" font-family="Arial" font-size="14.00">(ResourceQuota)</text>
</g>
<!-- team&#45;a&#45;resource&#45;quota&#45;&gt;team&#45;a&#45;prod -->
<g id="edge7" class="edge">
<title>team&#45;a&#45;resource&#45;quota&#45;&gt;team&#45;a&#45;prod</title>
<path fill="none" stroke="black" d="M678.6,-218.89C675.35,-217.86 672.1,-216.9 668.91,-216 582,-191.67 550.92,-211.82 462.95,-180.26"/>
<polygon fill="black" stroke="black" points="464.24,-177 453.65,-176.79 461.79,-183.56 464.24,-177"/>
</g>
<!-- team&#45;a&#45;limit&#45;range -->
<g id="node11" class="node">
<title>team&#45;a&#45;limit&#45;range</title>
<path fill="#e6e6e6" stroke="black" stroke-width="2" d="M972.7,-288C972.7,-288 867.11,-288 867.11,-288 861.11,-288 855.11,-282 855.11,-276 855.11,-276 855.11,-228 855.11,-228 855.11,-222 861.11,-216 867.11,-216 867.11,-216 972.7,-216 972.7,-216 978.7,-216 984.7,-222 984.7,-228 984.7,-228 984.7,-276 984.7,-276 984.7,-282 978.7,-288 972.7,-288"/>
<text text-anchor="middle" x="919.91" y="-256.2" font-family="Arial" font-size="14.00">team&#45;a&#45;limit&#45;range</text>
<text text-anchor="middle" x="919.91" y="-239.4" font-family="Arial" font-size="14.00">(LimitRange)</text>
</g>
<!-- team&#45;a&#45;limit&#45;range&#45;&gt;team&#45;a&#45;prod -->
<g id="edge8" class="edge">
<title>team&#45;a&#45;limit&#45;range&#45;&gt;team&#45;a&#45;prod</title>
<path fill="none" stroke="black" d="M855.01,-218.8C851.97,-217.77 848.92,-216.83 845.91,-216 683.72,-171.55 626.19,-232.31 463.03,-180.14"/>
<polygon fill="black" stroke="black" points="464.16,-176.82 453.57,-177.01 461.96,-183.47 464.16,-176.82"/>
</g>
<!-- team&#45;a&#45;apps&#45;admin&#45;role -->
<g id="node12" class="node">
<title>team&#45;a&#45;apps&#45;admin&#45;role</title>
<path fill="#e6e6e6" stroke="black" stroke-width="2" d="M491.6,-396C491.6,-396 350.21,-396 350.21,-396 344.21,-396 338.21,-390 338.21,-384 338.21,-384 338.21,-336 338.21,-336 338.21,-330 344.21,-324 350.21,-324 350.21,-324 491.6,-324 491.6,-324 497.6,-324 503.6,-330 503.6,-336 503.6,-336 503.6,-384 503.6,-384 503.6,-390 497.6,-396 491.6,-396"/>
<text text-anchor="middle" x="420.91" y="-364.2" font-family="Arial" font-size="14.00">team&#45;a&#45;apps&#45;admin&#45;role</text>
<text text-anchor="middle" x="420.91" y="-347.4" font-family="Arial" font-size="14.00">(Role)</text>
</g>
<!-- team&#45;a&#45;apps&#45;admin&#45;role&#45;&gt;team&#45;a&#45;prod -->
<g id="edge9" class="edge">
<title>team&#45;a&#45;apps&#45;admin&#45;role&#45;&gt;team&#45;a&#45;prod</title>
<path fill="none" stroke="black" d="M434.09,-323.67C443.12,-294.5 451.98,-252.18 442.91,-216 440.75,-207.42 437.34,-198.74 433.43,-190.54"/>
<polygon fill="black" stroke="black" points="436.62,-189.1 428.95,-181.8 430.39,-192.29 436.62,-189.1"/>
</g>
<!-- team&#45;a&#45;apps&#45;admin&#45;role&#45;&gt;team&#45;a&#45;apps&#45;namespace -->
<g id="edge10" class="edge">
<title>team&#45;a&#45;apps&#45;admin&#45;role&#45;&gt;team&#45;a&#45;apps&#45;namespace</title>
<path fill="none" stroke="black" d="M396.6,-323.7C390.81,-315.3 384.56,-306.23 378.53,-297.47"/>
<polygon fill="black" stroke="black" points="381.52,-295.64 372.97,-289.39 375.76,-299.61 381.52,-295.64"/>
</g>
<!-- team&#45;a&#45;apps&#45;admin&#45;rolebinding -->
<g id="node13" class="node">
<title>team&#45;a&#45;apps&#45;admin&#45;rolebinding</title>
<path fill="#e6e6e6" stroke="black" stroke-width="2" d="M403.18,-504C403.18,-504 216.63,-504 216.63,-504 210.63,-504 204.63,-498 204.63,-492 204.63,-492 204.63,-444 204.63,-444 204.63,-438 210.63,-432 216.63,-432 216.63,-432 403.18,-432 403.18,-432 409.18,-432 415.18,-438 415.18,-444 415.18,-444 415.18,-492 415.18,-492 415.18,-498 409.18,-504 403.18,-504"/>
<text text-anchor="middle" x="309.91" y="-472.2" font-family="Arial" font-size="14.00">team&#45;a&#45;apps&#45;admin&#45;rolebinding</text>
<text text-anchor="middle" x="309.91" y="-455.4" font-family="Arial" font-size="14.00">(RoleBinding)</text>
</g>
<!-- team&#45;a&#45;apps&#45;admin&#45;rolebinding&#45;&gt;team&#45;a&#45;prod -->
<g id="edge11" class="edge">
<title>team&#45;a&#45;apps&#45;admin&#45;rolebinding&#45;&gt;team&#45;a&#45;prod</title>
<path fill="none" stroke="black" d="M286.4,-431.71C255.44,-380.38 209.71,-283.85 252.91,-216 273.58,-183.52 313.44,-165.65 347.15,-155.97"/>
<polygon fill="black" stroke="black" points="347.63,-159.46 356.38,-153.49 345.82,-152.7 347.63,-159.46"/>
</g>
<!-- team&#45;a&#45;apps&#45;admin&#45;rolebinding&#45;&gt;team&#45;a&#45;apps&#45;namespace -->
<g id="edge12" class="edge">
<title>team&#45;a&#45;apps&#45;admin&#45;rolebinding&#45;&gt;team&#45;a&#45;apps&#45;namespace</title>
<path fill="none" stroke="black" d="M313.33,-431.53C316.44,-402.47 321.66,-360.35 328.91,-324 330.52,-315.91 332.53,-307.38 334.63,-299.15"/>
<polygon fill="black" stroke="black" points="337.97,-300.21 337.14,-289.64 331.2,-298.42 337.97,-300.21"/>
</g>
<!-- team&#45;a&#45;apps&#45;admin&#45;rolebinding&#45;&gt;team&#45;a&#45;apps&#45;admin&#45;role -->
<g id="edge13" class="edge">
<title>team&#45;a&#45;apps&#45;admin&#45;rolebinding&#45;&gt;team&#45;a&#45;apps&#45;admin&#45;role</title>
<path fill="none" stroke="black" d="M346.87,-431.7C356.14,-422.85 366.18,-413.26 375.8,-404.08"/>
<polygon fill="black" stroke="black" points="378.2,-406.63 383.01,-397.19 373.36,-401.56 378.2,-406.63"/>
</g>
</g>
</svg>
